/* XPM */
static char *AvaT_600_11692206735[] = {
/* columns rows colors chars-per-pixel */
"96 96 31 1 ",
"  c None",
". c #332411",
"X c #3F2A15",
"o c #2B1E0D",
"O c #241808",
"+ c #9B6349",
"@ c #B3795E",
"# c #B7836B",
"$ c #AA7259",
"% c #342512",
"& c white",
"* c #523D89",
"= c #6A4030",
"- c #90593F",
"; c #8F5E3E",
": c #492510",
"> c #774235",
", c #421D0A",
"< c #815339",
"1 c #94603E",
"2 c #00A4A4",
"3 c #00AFAF",
"4 c #049595",
"5 c #058888",
"6 c #0ABCBC",
"7 c #3A3189",
"8 c #41359B",
"9 c #463AA5",
"0 c gray29",
"q c #555555",
"w c #3F3F3F",
/* pixels */
"                                                                                                ",
"                                                                                                ",
"                                                                                                ",
"                                                                                                ",
"                                                                                                ",
"                                                                                                ",
"                                                                                                ",
"                                                                                                ",
"                                                                                                ",
"                                                                                                ",
"                                                                                                ",
"                                                                                                ",
"                                                                                                ",
"                                                                                                ",
"                                                                                                ",
"                                                                                                ",
"                                        ....XXXXXXXX..oo                                        ",
"                                        ....XXXXXXXX..oo                                        ",
"                                        OO....XXXX..XX..                                        ",
"                                        OO....XXXX..XX..                                        ",
"                                        oo++@@##@@$$++%%                                        ",
"                                        oo++@@##@@$$++%%                                        ",
"                                        ++$$@@@@$$$$$$++                                        ",
"                                        ++$$@@@@$$$$$$++                                        ",
"                                        $$&&**$$++**&&$$                                        ",
"                                        $$&&**$$++**&&$$                                        ",
"                                        ++$$$$====$$$$++                                        ",
"                                        ++$$$$====$$$$++                                        ",
"                                        --;;::>>>>,,;;<<                                        ",
"                                        --;;::>>>>,,;;<<                                        ",
"                                        11<<,,::,,::<<;;                                        ",
"                                        11<<,,::,,::<<;;                                        ",
"                                222233333322$$++++$$223333332222                                ",
"                                222233333322$$++++$$223333332222                                ",
"                                22333333333344$$$$44333333333322                                ",
"                                22333333333344$$$$44333333333322                                ",
"                                33332244223322335522332244223333                                ",
"                                33332244223322335522332244223333                                ",
"                                66666633443333334433334433666666                                ",
"                                66666633443333334433334433666666                                ",
"                                ++--++--5522333344333355--++--++                                ",
"                                ++--++--5522333344333355--++--++                                ",
"                                $$++$$$$5522223344333355$$$$++$$                                ",
"                                $$++$$$$5522223344333355$$$$++$$                                ",
"                                $$++$$++4433332244223355++$$++$$                                ",
"                                $$++$$++4433332244223355++$$++$$                                ",
"                                $$$$$$++5533334422222244++$$$$$$                                ",
"                                $$$$$$++5533334422222244++$$$$$$                                ",
"                                $$$$$$++5544224433332244++$$$$$$                                ",
"                                $$$$$$++5544224433332244++$$$$$$                                ",
"                                $$$$$$$$5544445522333344$$$$$$$$                                ",
"                                $$$$$$$$5544445522333344$$$$$$$$                                ",
"                                $$$$++$$7777888877552244$$++$$$$                                ",
"                                $$$$++$$7777888877552244$$++$$$$                                ",
"                                --$$++++8899998899885555++++$$--                                ",
"                                --$$++++8899998899885555++++$$--                                ",
"                                        9999997799998888                                        ",
"                                        9999997799998888                                        ",
"                                        9999997788999999                                        ",
"                                        9999997788999999                                        ",
"                                        9999998877999999                                        ",
"                                        9999998877999999                                        ",
"                                        9999998888999999                                        ",
"                                        9999998888999999                                        ",
"                                        8877778888777788                                        ",
"                                        8877778888777788                                        ",
"                                        9988889988888899                                        ",
"                                        9988889988888899                                        ",
"                                        9999999988999999                                        ",
"                                        9999999988999999                                        ",
"                                        9999999977999999                                        ",
"                                        9999999977999999                                        ",
"                                        9999888877889999                                        ",
"                                        9999888877889999                                        ",
"                                        7777777777777777                                        ",
"                                        7777777777777777                                        ",
"                                        00qq000000qq0000                                        ",
"                                        00qq000000qq0000                                        ",
"                                        ww0000wwww0000ww                                        ",
"                                        ww0000wwww0000ww                                        ",
"                                                                                                ",
"                                                                                                ",
"                                                                                                ",
"                                                                                                ",
"                                                                                                ",
"                                                                                                ",
"                                                                                                ",
"                                                                                                ",
"                                                                                                ",
"                                                                                                ",
"                                                                                                ",
"                                                                                                ",
"                                                                                                ",
"                                                                                                ",
"                                                                                                ",
"                                                                                                ",
};
