/* XPM */
static char *obraz_mistr1692208403[] = {
/* columns rows colors chars-per-pixel */
"96 96 36 1 ",
"  c #005500",
". c #025C01",
"X c #0A5E08",
"o c #066103",
"O c #0A6406",
"+ c #0C6807",
"@ c #0D6609",
"# c #0E690A",
"$ c #11640F",
"% c #126B0E",
"& c #156713",
"* c #156E11",
"= c #186E15",
"- c #1B6F19",
"; c #177113",
": c #1A7316",
"> c #1D7619",
", c #1F791B",
"< c #227B1E",
"1 c #257E21",
"2 c #278023",
"3 c #298325",
"4 c #2D8629",
"5 c #2F882A",
"6 c #318B2D",
"7 c #358E31",
"8 c #388F34",
"9 c #379033",
"0 c #399335",
"q c #3D9639",
"w c #3F993B",
"e c #419B3D",
"r c #459F41",
"t c #46A142",
"y c #49A345",
"u c #4DA749",
/* pixels */
"11122223<Oo*333323976444995223qq0455454,1<%*%*%;336etqOoO**:8006662237772<2344443>:>222233222<22",
"12222223<o.%3331249974449952<3www555444<<>%%%%%;334eewooo%%:080766323777,,<444444>>>222322222<<<",
"<2122333<=*:313123655344595223009344755221;;=:;:446qw9;%*::,797544222677222334453>:><2<2<2<22222",
"<<<433113665,<,1<1333222,,,332>,>;;,www544><<222796222223455211122<<2455565222454;**+#%><<222565",
"<<<333113665,,<1<11213312,,333,,,:*<www443<<<323777222223444212<<2<<<556565222554;%*%#%><>222564",
"<<1654<11665<<<<114331111222112,,,:<qqq565<><<<1665333323454222323233444565<<2333::;;;:<2<223444",
"<<3ww0;;,6653331<3007,,1555;;:334322113we0>>:%#;455434444555333777000322674@o@,<<222343666333<<<",
"<<3ee0;:,766323113007::,554:;>333232214we0>>>##*555534445554333777000222676+oO<<<3233336663332<<",
"223qq9;;,555444<,3707,11775**:655111111qq8>,>->>434554333545334666976222444*%;<,<<<<2435655542<<",
"233332>:,113886=*,555555we8  &tyw*=;1,1333113897,:<666<<2333555322121:::::,3332<,OoO243435000<<<",
"333433:>>111087;;,555547we8  &yye;*;<113431<1887,:<6961<<233555332222::::,:443<<<o.O2223340e0<<<",
"222332>>,113675::,554545007$@-wwq:::<,<331331755,:,4441<233355533221<<,<<<<233221*%*355445666<:<",
">>>,,,2,<333>>><1<1<1444,:<56533311<::><<1006<,,;;*#+%112222565433:;:334565<,<666666900655%%%<2<",
">>,,<<,22332:>><<,<<2443,:<554433,1<:::,>1987>,,*;*#+%333323665433:;:344565,<<776666009653;%%<<<",
">>,,<,<<<322<<2<<1<<14431,1775221131:::11177611<;;;*;;<<<222555333<,<444555<,,456666999665:::<<<",
"222>>>>>><<2099231,,,444546qw0::,564::,777>><777;%:332Oo#333332211799555776:;;;;;434444909333:::",
"222>::>>>1<2009232>><434559ww0>;>664::>987>:,007%%*332oo@233332<<2999555775:;;%;;243253909522:;:",
"222,,2,2<<>277622<>>>444334007,,2453::>664,><554,:<343%%*43322<2<2697444665,,,,:,4652230q0433>::",
"222556674>>>12<>>>%#:464;:>,>255422<<,<::>331#@*666099545443;;:<<2343,,<3336664559992220wq423,2,",
"2,2455576>><1<<<<>%%:664:::,,<574222,<,::>131%#*666000555443;;:<22444,,<333665556997222qeq4422,,",
"<,2353553>><232><>%#:464::><22554<2<<<<>,<331*%;566666444232<:><<2333<<22235553346762229qq523,,,",
"+o%222,2>;;>6642<<;;>443>:,966333>>><<2444222,>,,<,>>,1<<>:>466<><<<<333,,<233222222,2,222222,,,",
"Oo%222,,>;;>664<2>%%:443>><676333>:>2<2564222>>,<,,:>,<<<>;<564<<<<<<443<,<3331<2:,22223222,,,,,",
"##*2<2,2<>:<766222>-<443>:<666432>>>,<<3332211,,<<,,:><<<<><443<><<<<332,,,332222222222222,22<<,",
"<<<<<2666669w0w999000664<,234444322<##%:::3114441<<;;;>>>666<<>%*;443:;:%%%<,<2224556652,,>:>223",
"1<<<>2767999wwq990w00664>><554553221OO#:::11144411<;;*>:>666<<<%%*233***%#%><<222455665,,>>::222",
"<<1222666446000999999444<22333333<2<=;=>,,<11333<1<:>:<,<454<<<;*>544<><>::<<,22222356521<:;:233",
"213556453%%;<,27962<<>:<796;;;::::;>656997,1,,,,,<<33322<:;>6542<3wew090776222::;%+%233575;*;444",
"1<3565443#%;<<2996<2<:=,996;;;:::;;>556977,,<,,,<,<342221;;:444<22eee0007762<2;;*+++233665;*;444",
"323444343=;:<<<674222<<1664:>:>>>>><6667771,1<,,<<<112232,><444<>20q0766776222>:>:;:222675:;:344",
"674;=:222443:>>2<2999906#+*333454445977675231<<<331%%%244444222%%*<2<%+%9003234447762,2556333:::",
"775%*:222443::><<3008007++*333454444779777112<<<332%%%444564443%%*<<<+O%000223444796,:2677434:::",
"553<=<<<<353:<<<22677775%%;333665555797565343<<<331**;333333222;;:1<1:=:7073335555561,14553331<<",
"<<<655<<<<<<<22322222<<<<<<334909444565>;1008>:>,<<,<>>>>>>>;*;<111<170733344578711,343:;:,,,000",
"<<<553<<<<<<2223322<<<<<>,<334009545665,,10q7::><<<,<<>>>>:>**:<131117083344457871,1333;:;,,,000",
"<<<45513<<<<<2<<<222222<<<<333999333554>:,787>,<,<<<<<><<,,>;*:211<11775333444675111333,::1,1797",
"5663<6eee<3<<<<OO;565334455665453##*,,,:;;;;:3331<13321<2443>:>354:::***,<1355*%*344444323333;%;",
"665335ee0<3<<<<XO*665334545555553@#%,2,:;;:;:343<<<3332<2443;;>453::;%#%<<1555*+*344333333333;;*",
"6651<5ee023<<<<%#:544323556555553=;:<1,;**:::343<<<212222333<>,343:,:,::,,1555:=:333454333333;;;",
"351:;<556007:;<<2<>:>;*<qe0455<<2000453o.O::::::11<:=>464>:<909,,,111707*o#343775=*;qwq776333111",
"35<:;<556007::<<<<;::;;<ww05442<3009654. .;:;:::,<<::>564>:>009,,,112007#o#444795=#;www0793331<1",
"3<<::<535676<<<222<<::;<999564<<2009443$$&<<1>,,222::>554,>2909,:,111777=**333555;*:0qq555333222",
"*%;<<<<<<:;<5665653332<<#@*664<:3ttw<,1090wew334353<<2323344665:::<<<121343,,,:::<1<<<<,,,566556",
"%%;<<<<<<:;<666555443<2<+O*664,,3tte<,180qeew4334532<,233334674>;:<1<111444,:,:;:<<<1,1,:,565666",
";;<<<<<<<<<<554342333332*%:444,:1erw<<1899www444333222233344454>;:,<<121333<,<,,,11,1<,,,,455544",
"<<<<<<:<<765::<<<<<:<009341;:*  $6661111336777762230q9666654<>,211:;;333#O%677907211<114441<,:;:",
"<<131<;;<996<:<<<:::<000343*;*  $6551113137777762<20q0767666,>,21<;;:433@X#7770091111<1454<<<:;:",
"<1<3<<<:<765:;:<<<:<<999333;:*o.&665131333555777222997656444<,>231;;;333#@*776676312,1,333<<,::;",
"<<<<:<896<1<. *qq9222>>,,,,2,2455665534575@o*ww0:>>>>:,>,>,,222455:::,,,,,,333#O%665:;;%%%;;;,,<",
"<<<;%<999<<<  &qw0222:>>>>,,,2566666435775oo*weq>:>;::>>>::>2<2555:::,,,,:,443+o#575;%*###%;;,<,",
"<<<<<<966<<<@X=807222,,,2,2222455665333554#O=009>>>,,>,,,,,<222343,,,<<<,,,333*#*555:;;;%;;;;,<,",
"$O<696444<<2776=;;>>,576995222,,2797222>>><>>222;;>697323544443;*:5669961<,:::333222,,,,<<,:,,::",
"@o<786443,,1776*;;,>2657999222,>279722<>>>><,22,:*>997323554553;%;667999<<,:::3532<<,,,2<<,,,:::",
";%<7872231<3906;;>,,,7557952,2,22676222;=><>>2,2:;>666222444443:;:666666<,,:::3432322<<<<<<,,,,,",
"897664<<17670993222,22,2232;%>66422,443>>><<2>,,,,,::::;>232223444222%%;;;*;;;,,<999555<<2666655",
"997664<<1766007322222,22232%%>775>:2454>>><>,,:,,>>:::;;:222223455222%%#***%%;,,<999656222666666",
"999453,,1667000322<2<<2,333;;:5552222432,2<22>,,<22::;:;>344322454222;;;***:::<,<767655322666565",
"007121;;,546qw0,<<::>>>,554,,,3223442222346652230q7;*:224rrr322<,<997,<,;*:5542<<,,<334909312556",
"90712<;;,547ww0<<<:::>:,564,,<1,2554222555776333qq0;*;224tyr322<,<797<,,*%;5551<<,,,343009213555",
"996332:;,445qq0,<<>>>>><4541<12322332223335652239q7;*:223rre221<,2666,<,:;:3551<<<,<333997312666",
"113996,<<<<<<<,;*>665775::>656554++%2>2:,>;::>>>343:::22<212212122222,<,222:::::>343343434333788",
"<,3007,,,,<,,<,;*>667776:;>666774++%222:>:;;;>>>343::><<2<<<2221<22222<2232:;::::345333343333708",
"1<3796<,<21<<<<;*>576564>:<565564#+*222:>>:::,>,333>:>232<<1121<22222,<<222::::;:453333332334787",
"434555223009222;=<554=;:343343<<,>::%%*222222333222,><007<<<**;>,,;:>,,,,>,<2<#O#334533;%*122341",
"434464213qq9222;*>563**;3553532,<>>>*%;22<222334222<><0q02<<%%%><>;;:,<,,:,111Oo@354343%O#132212",
"344444323009222>;,552**;533232,,<>,>;:;2222233432<<<<2906<<<***<<<>::<<<,,,11<$o%233433:*:132323",
"333:><767796222,,,2<22,2332;;;22<>><22<>:<666664%#<yyr<>>%%%;;:444323433<<<:::,,>%%*2449081<<666",
"331::<777776332,,,<<,,22232;%;2,2>>>2<<::<666664%+>yut>>:%##;*:444333343<<,:::,,>%#%3440q01<1566",
"232::<766776222,,22,2,,2332;;:,2<<<<222<>2666654;%<yye<>:%%%:;:443322443<<,,>,,<,:=:3349081<<464",
"12<%%;>><674>>>,,,,,,>>,996222:;<6666666665652222112422<2,<<<<2<22,>,777,:,666445qeq313685*#%:::",
"<2<%%;>><675::>,,,<2,>;,996222;;>766667667544222323211<2<<<<<2<<2,>>,797>=>776546eee212776#o+;**",
"12<*;;>>2663>>>,,22,2;:,995222>:<666766766564222222222212<,,2<22<2,>,796,:>667445qeq312676*+%=;:",
"464433::><<2443222232,,2565222555334909453222::><><445909>:>666444,<<555223677553,,,233977111;:;",
"665443:;:<>25442223222,2555323555335009443<2<::::>>446009>:<6665552,<543333977565:;:233677311:*:",
"666443:>>,,24432222222,26552235543349775542<<>>,<><445966::>666454,,<555223667443,::232666311:::",
"99734322<:::>:2weq352>,,976222223665223we0**>999455343<<<>><3332<2334909<<<<<<11<232:::<<1700311",
"997343222;=::;2erw5532,2696222222666223ee0;%:009646342>>>>>>333<,23350092<<,,,<<1332:;:,,<000311",
"767443222:>>>>2weq443,,2996222222555223ee0;;>999545442><>>><343<,2343997<,<<,,<1<332:;:,<<909312",
":=>453<<266633577522,,:2etw322,22223356009343444<><222:;>444707>:,222%%%OO#344331%##:::,,,555444",
";%>564<<27963457742,2,>2tye2322,,222666009555433>>><22;;:446009<>,232+++Oo+444333#o+:;:,,,354455",
":;,444<<26764445552<<,,2erw333112222556007433443>:2222::>4557962,,131*$*+o%444331%+%:,,,,,343434",
"665222,,2554332#+;223554<<<112796<,,<22666;::4532:24552225342>:221*%*465111111:::1<1675,:,:::;*;",
"775222,,<554331@O%223554,,<2<2996<<<<,2675**:5542:2354233433;:>221%%*675311331:==<11777,,,;;;*%*",
"674222<,<553221#+;223554,,,222796<<<<<2565;;:353222555333454>:>232**=565313111:::111666,:,;::;*;",
"0q7:>>2<<:::;;*##;33212<#+*444333:>>;;:454<2<222345443222665::2709655133333%+*133007<<,*%*<,<<11",
"0q7;>><2<:::%%%#O*333<<,@o*444332>>:;;:343<22222555444223665:::900767333331#+#334000<,,*%%,<,221",
"007::>2<<:::;;;%%:333<2,#+;444322>,>;;:342222222565443222565::2900667131411%+&333007,,,***<<<11<",
"343>>>222<<<<,3ww0907233555<<,#O;996222<22453>>,2226642>2332:*;544454343111+o+233111%%%344323:::",
"332,,<221,,,2<3eew009333765,1,o.:009322<:2664::22237762:>222;*:3444443342<<+o+1431<<#@#455322:;;",
"232,>,2222222,3wew8092236541<,+O;796222<226652::2227762:2332:::333433333<1<#@%132<11;%;355332:;:",
">,:%%:334q07>>2008332+@%343131112;:>222,;,67622>;;20q0:>>353**;::,232121;;:,<<<<,:::344222333:;:",
"::;%+;535ww0>>,009341oo$333333132;;;232:;2776222;*:0w0:22353***:::323211;%;211,,,:::555212333:;;",
":::%%;534wq9,>2807331OO%333311112*;;222::>776222:;2ww0222333:**>>>312111;;;<2<,,,:::444222333:::",
">:<443>><435ww8,,,***,,,;:;:::::;2227662224322:2656000323553>>>555+O+232,>>;;:443222>>>454,,,,,,",
"::,554>>,435eeq:,;##*,,,;;;;;;**;222797222343:::6670004453532:>675o.@212,,>*%;454322:::454,>,,,,",
">:<553>:,435weq::;**;,,,;;;:;;;**222776222343>:2667q09443535>:2676@oo131,>>;;;344222:::454,,,,,,"
};
