/* XPM */
static char *AvaT_6001692213429[] = {
/* columns rows colors chars-per-pixel */
"96 96 18 1 ",
"  c None",
". c #2B1E0D",
"X c #332411",
"o c #241808",
"O c #3F2A15",
"+ c #90593F",
"@ c #9B6349",
"# c #8F5E3E",
"$ c #815339",
"% c #00AFAF",
"& c #00A4A4",
"* c #0ABCBC",
"= c #AA7259",
"- c #41359B",
"; c #3A3189",
": c gray29",
"> c #373737",
", c #3F3F3F",
/* pixels */
"                                                                                                ",
"                                                                                                ",
"                                                                                                ",
"                                                                                                ",
"                                                                                                ",
"                                                                                                ",
"                                                                                                ",
"                                                                                                ",
"                                                                                                ",
"                                                                                                ",
"                                                                                                ",
"                                                                                                ",
"                                                                                                ",
"                                                                                                ",
"                                                                                                ",
"                                                                                                ",
"                                        ....XXXX..oo....                                        ",
"                                        ....XXXX..oo....                                        ",
"                                        ..XX....ooooXXXX                                        ",
"                                        ..XX....ooooXXXX                                        ",
"                                        XXOOXX....XXOOXX                                        ",
"                                        XXOOXX....XXOOXX                                        ",
"                                        ..oo..XXXXoo....                                        ",
"                                        ..oo..XXXXoo....                                        ",
"                                        ..XX..XX..++@@oo                                        ",
"                                        ..XX..XX..++@@oo                                        ",
"                                        XXXX..XXoo@@@@@@                                        ",
"                                        XXXX..XXoo@@@@@@                                        ",
"                                        oo..oo++@@##$$##                                        ",
"                                        oo..oo++@@##$$##                                        ",
"                                        $$++##@@##@@##$$                                        ",
"                                        $$++##@@##@@##$$                                        ",
"                                            %%%%%%&&                                            ",
"                                            %%%%%%&&                                            ",
"                                            %%%%&&&&                                            ",
"                                            %%%%&&&&                                            ",
"                                            %%&&&&%%                                            ",
"                                            %%&&&&%%                                            ",
"                                            ********                                            ",
"                                            ********                                            ",
"                                            @@@@@@++                                            ",
"                                            @@@@@@++                                            ",
"                                            ======@@                                            ",
"                                            ======@@                                            ",
"                                            @@======                                            ",
"                                            @@======                                            ",
"                                            @@======                                            ",
"                                            @@======                                            ",
"                                            @@==@@==                                            ",
"                                            @@==@@==                                            ",
"                                            ====@@==                                            ",
"                                            ====@@==                                            ",
"                                            ====@@==                                            ",
"                                            ====@@==                                            ",
"                                            @@====@@                                            ",
"                                            @@====@@                                            ",
"                                            ----;;--                                            ",
"                                            ----;;--                                            ",
"                                            --;;;;--                                            ",
"                                            --;;;;--                                            ",
"                                            --;;----                                            ",
"                                            --;;----                                            ",
"                                            --;;----                                            ",
"                                            --;;----                                            ",
"                                            --;;----                                            ",
"                                            --;;----                                            ",
"                                            --;;----                                            ",
"                                            --;;----                                            ",
"                                            --;;----                                            ",
"                                            --;;----                                            ",
"                                            --------                                            ",
"                                            --------                                            ",
"                                            ;;;;----                                            ",
"                                            ;;;;----                                            ",
"                                            ::::;;;;                                            ",
"                                            ::::;;;;                                            ",
"                                            >>,,::::                                            ",
"                                            >>,,::::                                            ",
"                                            >>>>>>,,                                            ",
"                                            >>>>>>,,                                            ",
"                                                                                                ",
"                                                                                                ",
"                                                                                                ",
"                                                                                                ",
"                                                                                                ",
"                                                                                                ",
"                                                                                                ",
"                                                                                                ",
"                                                                                                ",
"                                                                                                ",
"                                                                                                ",
"                                                                                                ",
"                                                                                                ",
"                                                                                                ",
"                                                                                                ",
"                                                                                                "
};
